<svg width="162" height="160" viewBox="0 0 162 160" fill="none" xmlns="http://www.w3.org/2000/svg">
<circle cx="81" cy="80" r="80" fill="#F1B901"/>
<path d="M156 80C156 121.421 122.421 155 81 155C39.5786 155 6 121.421 6 80C6 38.5786 39.5786 5 81 5C122.421 5 156 38.5786 156 80Z" fill="#FFC814"/>
<circle cx="81" cy="80" r="70" fill="#FFD755"/>
<circle cx="81" cy="80" r="65" fill="#FFEFBC"/>
<circle cx="81" cy="80" r="60" fill="#D5D7F4"/>
<circle cx="81" cy="80" r="55" fill="#B9BBDE"/>
<circle cx="81" cy="80" r="50" fill="#9B8FAC"/>
<circle cx="81" cy="80" r="45" fill="#807490"/>
<circle cx="81" cy="80" r="40" fill="#7A5582"/>
<circle cx="81" cy="80" r="35" fill="white"/>
<mask id="path-11-inside-1_62_624" fill="white">
<path fill-rule="evenodd" clip-rule="evenodd" d="M159.18 101C161.019 94.3077 162 87.267 162 80C162 72.733 161.019 65.6923 159.18 59L2.8195 59C0.981057 65.6923 0 72.733 0 80C0 87.267 0.981057 94.3077 2.8195 101H159.18Z"/>
</mask>
<path fill-rule="evenodd" clip-rule="evenodd" d="M159.18 101C161.019 94.3077 162 87.267 162 80C162 72.733 161.019 65.6923 159.18 59L2.8195 59C0.981057 65.6923 0 72.733 0 80C0 87.267 0.981057 94.3077 2.8195 101H159.18Z" fill="white"/>
<path d="M159.18 101V102H159.943L160.145 101.265L159.18 101ZM159.18 59L160.145 58.7351L159.943 58H159.18V59ZM2.8195 59L2.8195 58H2.05716L1.85522 58.7351L2.8195 59ZM2.8195 101L1.85522 101.265L2.05716 102H2.8195V101ZM161 80C161 87.1766 160.031 94.1283 158.216 100.735L160.145 101.265C162.007 94.4872 163 87.3574 163 80H161ZM158.216 59.2649C160.031 65.8717 161 72.8234 161 80H163C163 72.6426 162.007 65.5128 160.145 58.7351L158.216 59.2649ZM159.18 58L2.8195 58L2.8195 60L159.18 60V58ZM1 80C1 72.8234 1.9688 65.8717 3.78377 59.2649L1.85522 58.7351C-0.00668983 65.5128 -1 72.6426 -1 80H1ZM3.78377 100.735C1.9688 94.1283 1 87.1766 1 80H-1C-1 87.3574 -0.0066897 94.4872 1.85522 101.265L3.78377 100.735ZM2.8195 102H159.18V100H2.8195V102Z" fill="white" mask="url(#path-11-inside-1_62_624)"/>
<path d="M29.44 92.416C27.8187 92.416 26.3893 92.064 25.152 91.36C23.9147 90.6347 22.9547 89.6533 22.272 88.416C21.6107 87.1573 21.28 85.76 21.28 84.224C21.28 82.7093 21.6107 81.3333 22.272 80.096C22.9333 78.8587 23.872 77.8773 25.088 77.152C26.3253 76.4053 27.7653 76.032 29.408 76.032C30.816 76.032 32.1067 76.3093 33.28 76.864C34.4533 77.3973 35.3707 78.1333 36.032 79.072L34.08 80.992C33.5253 80.3093 32.8427 79.7973 32.032 79.456C31.2213 79.0933 30.368 78.912 29.472 78.912C28.4693 78.912 27.584 79.136 26.816 79.584C26.048 80.0107 25.4507 80.6293 25.024 81.44C24.5973 82.2507 24.384 83.1787 24.384 84.224C24.384 85.2693 24.5867 86.1973 24.992 87.008C25.4187 87.8187 26.016 88.448 26.784 88.896C27.552 89.344 28.448 89.568 29.472 89.568C30.3893 89.568 31.2427 89.3867 32.032 89.024C32.8427 88.6613 33.5253 88.1387 34.08 87.456L36 89.376C35.36 90.3147 34.4533 91.0613 33.28 91.616C32.128 92.1493 30.848 92.416 29.44 92.416ZM45.9698 92.384C44.4338 92.384 43.0471 92.032 41.8098 91.328C40.5724 90.624 39.6018 89.6533 38.8978 88.416C38.2151 87.1787 37.8738 85.792 37.8738 84.256C37.8738 82.6987 38.2151 81.3013 38.8978 80.064C39.6018 78.8053 40.5724 77.824 41.8098 77.12C43.0471 76.3947 44.4338 76.032 45.9698 76.032C47.5271 76.032 48.9138 76.3947 50.1298 77.12C51.3671 77.824 52.3271 78.8053 53.0098 80.064C53.7138 81.3227 54.0658 82.72 54.0658 84.256C54.0658 85.792 53.7138 87.1787 53.0098 88.416C52.3271 89.6533 51.3671 90.624 50.1298 91.328C48.9138 92.032 47.5271 92.384 45.9698 92.384ZM45.9698 89.536C46.9084 89.536 47.7511 89.3227 48.4978 88.896C49.2658 88.448 49.8631 87.8293 50.2898 87.04C50.7378 86.2293 50.9618 85.3013 50.9618 84.256C50.9618 83.2107 50.7378 82.2827 50.2898 81.472C49.8631 80.6613 49.2658 80.032 48.4978 79.584C47.7511 79.136 46.9084 78.912 45.9698 78.912C45.0311 78.912 44.1778 79.136 43.4098 79.584C42.6631 80.032 42.0658 80.6613 41.6178 81.472C41.1911 82.2827 40.9778 83.2107 40.9778 84.256C40.9778 85.3013 41.1911 86.2293 41.6178 87.04C42.0658 87.8293 42.6631 88.448 43.4098 88.896C44.1778 89.3227 45.0311 89.536 45.9698 89.536ZM60.7518 92H57.6798V68.416H60.7518V92ZM72.4385 92.384C70.9025 92.384 69.5158 92.032 68.2785 91.328C67.0412 90.624 66.0705 89.6533 65.3665 88.416C64.6838 87.1787 64.3425 85.792 64.3425 84.256C64.3425 82.6987 64.6838 81.3013 65.3665 80.064C66.0705 78.8053 67.0412 77.824 68.2785 77.12C69.5158 76.3947 70.9025 76.032 72.4385 76.032C73.9958 76.032 75.3825 76.3947 76.5985 77.12C77.8358 77.824 78.7958 78.8053 79.4785 80.064C80.1825 81.3227 80.5345 82.72 80.5345 84.256C80.5345 85.792 80.1825 87.1787 79.4785 88.416C78.7958 89.6533 77.8358 90.624 76.5985 91.328C75.3825 92.032 73.9958 92.384 72.4385 92.384ZM72.4385 89.536C73.3772 89.536 74.2198 89.3227 74.9665 88.896C75.7345 88.448 76.3318 87.8293 76.7585 87.04C77.2065 86.2293 77.4305 85.3013 77.4305 84.256C77.4305 83.2107 77.2065 82.2827 76.7585 81.472C76.3318 80.6613 75.7345 80.032 74.9665 79.584C74.2198 79.136 73.3772 78.912 72.4385 78.912C71.4998 78.912 70.6465 79.136 69.8785 79.584C69.1318 80.032 68.5345 80.6613 68.0865 81.472C67.6598 82.2827 67.4465 83.2107 67.4465 84.256C67.4465 85.3013 67.6598 86.2293 68.0865 87.04C68.5345 87.8293 69.1318 88.448 69.8785 88.896C70.6465 89.3227 71.4998 89.536 72.4385 89.536ZM92.8845 76.032V78.944H92.5965C91.4872 78.944 90.4632 79.1147 89.5245 79.456C88.5858 79.7973 87.7858 80.3093 87.1245 80.992V92H84.0525V76.448H87.0285V78.656C87.6258 77.8453 88.3938 77.2053 89.3325 76.736C90.2712 76.2667 91.2632 76.032 92.3085 76.032H92.8845ZM94.9583 92.416C94.5743 92.416 94.2223 92.32 93.9023 92.128C93.5823 91.936 93.3263 91.68 93.1343 91.36C92.9636 91.04 92.8783 90.688 92.8783 90.304C92.8783 89.9413 92.9636 89.6 93.1343 89.28C93.3263 88.96 93.5823 88.704 93.9023 88.512C94.2223 88.32 94.5743 88.224 94.9583 88.224C95.3423 88.224 95.6943 88.32 96.0143 88.512C96.3343 88.704 96.5903 88.96 96.7823 89.28C96.9743 89.6 97.0703 89.9413 97.0703 90.304C97.0703 90.688 96.9743 91.04 96.7823 91.36C96.5903 91.68 96.3343 91.936 96.0143 92.128C95.6943 92.32 95.3423 92.416 94.9583 92.416ZM103.876 92H100.804V76.448H103.876V92ZM102.308 72.928C101.945 72.928 101.615 72.8427 101.316 72.672C101.017 72.48 100.772 72.2347 100.58 71.936C100.409 71.6373 100.324 71.3067 100.324 70.944C100.324 70.6027 100.409 70.2827 100.58 69.984C100.772 69.664 101.017 69.4187 101.316 69.248C101.615 69.056 101.945 68.96 102.308 68.96C102.671 68.96 103.001 69.056 103.3 69.248C103.62 69.4187 103.865 69.664 104.036 69.984C104.228 70.2827 104.324 70.6027 104.324 70.944C104.324 71.3067 104.228 71.6373 104.036 71.936C103.865 72.2347 103.62 72.48 103.3 72.672C103.001 72.8427 102.671 72.928 102.308 72.928ZM116.332 76.032C117.463 76.032 118.476 76.2773 119.372 76.768C120.29 77.2373 121.004 77.9307 121.516 78.848C122.028 79.7653 122.284 80.864 122.284 82.144V92H119.212V82.688C119.212 81.5147 118.871 80.5973 118.188 79.936C117.527 79.2747 116.642 78.944 115.532 78.944C114.722 78.944 113.954 79.1253 113.228 79.488C112.524 79.8507 111.938 80.384 111.468 81.088V92H108.396V76.448H111.276L111.308 78.4C111.863 77.696 112.578 77.1307 113.452 76.704C114.327 76.256 115.287 76.032 116.332 76.032ZM135.351 83.776L140.919 92H137.335L133.207 85.824C133.058 85.5893 132.908 85.44 132.759 85.376C132.631 85.2907 132.418 85.248 132.119 85.248H129.687V92H126.615V68.416H129.687V82.56H132.279C132.514 82.56 132.695 82.528 132.823 82.464C132.951 82.3787 133.068 82.2293 133.175 82.016L137.367 76.448H140.823L135.351 83.776Z" fill="#523857"/>
</svg>
